{"title":"The Last Ship S02E12 HDTV x265-SSM.mp4","uid":12373799,"size":67197886,"categoryP":"video","categoryS":"hd___tv_shows","magnet":"?xt=urn:btih:fbd0daf3b1506029335c2a0b60a9fa065581436e&amp;dn=The+Last+Ship+S02E12+HDTV+x265-SSM.mp4&amp;tr=udp%3A%2F%2Ftracker.openbittorrent.com%3A80&amp;tr=udp%3A%2F%2Fopen.demonii.com%3A1337&amp;tr=udp%3A%2F%2Ftracker.coppersurfer.tk%3A6969&amp;tr=udp%3A%2F%2Fexodus.desync.com%3A6969","seeders":3,"leechers":0,"uploader":"SSM2015","files":1,"time":1441679935,"description":"=\nThe Last Ship S02E12 HDTV x265-SSM.mp4\n=\n\nRelease notes:\n\n1. x265 codec used.\n2. Ideal for Pc/Laptop/Smartphone\n3. Video Downscaled\n\nInfo:\n\nFormat                      : MPEG-4 \nFormat profile              : Base Media \nCodec ID                    : isom \nFile size                   : 64.1 MiB \nDuration                    : 42mn 4s \nOverall bit rate mode       : Variable \nOverall bit rate            : 213 Kbps \nWriting application         : Lavf56.40.101 \n\nVideo \nID                          : 1 \nFormat                      : HEVC \nFormat/Info                 : High Efficiency Video Coding \nFormat profile              : Main@L2@Main \nCodec ID                    : hev1 \nCodec ID/Info               : High Efficiency Video Coding \nDuration                    : 42mn 4s \nBit rate                    : 132 Kbps \nWidth                       : 416 pixels \nHeight                      : 240 pixels \nDisplay aspect ratio        : 1.733 \nFrame rate mode             : Constant \nFrame rate                  : 23.976 fps \nColor space                 : YUV \nChroma subsampling          : 4:2:0 \nBit depth                   : 8 bits \nScan type                   : Progressive \nBits/(Pixel*Frame)          : 0.055 \nStream size                 : 39.8 MiB (62%) \nWriting library             : x265 1.7:[Windows][GCC 4.9.2][64 bit] \nEncoding settings           : wpp / ctu=32 / min-cu-size=16 / max-tu-size=32 / tu-intra-depth=1 / tu-inter-depth=1 / me=0 / subme=0 / merange=57 / no-rect / no-amp / max-merge=2 / temporal-mvp / early-skip / rdpenalty=0 / no-tskip / no-tskip-fast / strong-intra-smoothing / no-lossless / no-cu-lossless / no-constrained-intra / fast-intra / open-gop / no-temporal-layers / interlace=0 / keyint=250 / min-keyint=23 / scenecut=0 / rc-lookahead=5 / lookahead-slices=0 / bframes=3 / bframe-bias=0 / b-adapt=0 / ref=1 / no-weightp / no-weightb / aq-mode=0 / aq-strength=0.00 / cbqpoffs=0 / crqpoffs=0 / rd=2 / psy-rd=0.30 / rdoq-level=0 / psy-rdoq=0.00 / no-signhide / deblock / no-sao / no-sao-non-deblock / b-pyramid / no-cutree / rc=crf / crf=28.0 / qcomp=0.60 / qpmin=0 / qpmax=51 / qpstep=4 / ipratio=1.40 / pbratio=1.30 \n\nAudio \nID                          : 2 \nFormat                      : AAC \nFormat/Info                 : Advanced Audio Codec \nFormat profile              : LC \nCodec ID                    : 40 \nDuration                    : 42mn 3s \nDuration_LastFrame          : 12ms \nBit rate mode               : Variable \nBit rate                    : 76.0 Kbps \nMaximum bit rate            : 128 Kbps \nChannel(s)                  : 2 channels \nChannel positions           : Front: L R \nSampling rate               : 22.05 KHz \nCompression mode            : Lossy \nStream size                 : 22.9 MiB (36%)","torrent":{"xt":"urn:btih:fbd0daf3b1506029335c2a0b60a9fa065581436e","amp;dn":"The+Last+Ship+S02E12+HDTV+x265-SSM.mp4","amp;tr":["udp%3A%2F%2Ftracker.openbittorrent.com%3A80","udp%3A%2F%2Fopen.demonii.com%3A1337","udp%3A%2F%2Ftracker.coppersurfer.tk%3A6969","udp%3A%2F%2Fexodus.desync.com%3A6969"],"infoHash":"fbd0daf3b1506029335c2a0b60a9fa065581436e","infoHashBuffer":{"type":"Buffer","data":[251,208,218,243,177,80,96,41,51,92,42,11,96,169,250,6,85,129,67,110]},"announce":[],"urlList":[]}}